<svg xmlns="http://www.w3.org/2000/svg" xmlns:xlink="http://www.w3.org/1999/xlink" width="500" zoomAndPan="magnify" viewBox="0 0 375 374.999991" height="500" preserveAspectRatio="xMidYMid meet" version="1.0"><defs><g/><clipPath id="459a3d0f2a"><path d="M 238 198 L 343 198 L 343 359.105469 L 238 359.105469 Z M 238 198 " clip-rule="nonzero"/></clipPath><clipPath id="8681a80b9f"><path d="M 31 70 L 294 70 L 294 359.105469 L 31 359.105469 Z M 31 70 " clip-rule="nonzero"/></clipPath></defs><g clip-path="url(#459a3d0f2a)"><path fill="#222227" d="M 339.363281 319.234375 L 269.460938 198.1875 L 238.640625 251.628906 L 293.066406 345.921875 C 297.984375 354.445312 306.96875 359.300781 316.214844 359.300781 C 320.738281 359.300781 325.328125 358.117188 329.527344 355.691406 C 342.378906 348.28125 346.707031 332.019531 339.363281 319.234375 Z M 339.363281 319.234375 " fill-opacity="1" fill-rule="nonzero"/></g><g clip-path="url(#8681a80b9f)"><path fill="#222227" d="M 290.3125 131.695312 L 260.675781 183.039062 L 229.789062 236.480469 L 182.054688 319.167969 C 167.757812 343.953125 141.070312 359.363281 112.480469 359.363281 C 83.429688 359.363281 57.398438 344.347656 42.839844 319.167969 C 28.285156 294.054688 28.285156 263.957031 42.839844 238.777344 L 126.382812 94.1875 C 135.035156 79.171875 150.578125 70.1875 167.890625 70.1875 C 185.199219 70.1875 200.742188 79.171875 209.460938 94.1875 L 212.480469 99.433594 L 221.132812 114.382812 L 190.25 167.824219 L 167.890625 129.136719 L 89.203125 265.464844 C 82.183594 277.59375 86.839844 288.347656 89.203125 292.414062 C 91.5625 296.480469 98.511719 305.921875 112.546875 305.921875 C 122.121094 305.921875 131.101562 300.742188 135.824219 292.414062 L 198.96875 183.039062 L 229.855469 129.597656 L 244.019531 105.007812 C 251.429688 92.21875 267.757812 87.828125 280.542969 95.238281 C 293.328125 102.582031 297.722656 118.910156 290.3125 131.695312 Z M 290.3125 131.695312 " fill-opacity="1" fill-rule="nonzero"/></g><path fill="#222227" d="M 277.332031 68.222656 C 291.625 100.417969 339.296875 80.679688 326.707031 47.761719 C 312.347656 15.632812 264.675781 35.367188 277.332031 68.222656 Z M 277.332031 68.222656 " fill-opacity="1" fill-rule="nonzero"/><g fill="#ffffff" fill-opacity="1"><g transform="translate(164.449442, 317.229845)"><g><path d="M 5.546875 -9.0625 C 4.804688 -7.757812 3.890625 -6.648438 2.796875 -5.734375 C 1.710938 -4.828125 0.476562 -4.242188 -0.90625 -3.984375 C -2.289062 -3.734375 -3.78125 -3.914062 -5.375 -4.53125 L -3.984375 -6.953125 C -2.796875 -6.554688 -1.726562 -6.488281 -0.78125 -6.75 C 0.15625 -7.007812 0.984375 -7.476562 1.703125 -8.15625 C 2.421875 -8.832031 3.015625 -9.578125 3.484375 -10.390625 C 4.285156 -11.773438 4.625 -13.023438 4.5 -14.140625 C 4.382812 -15.265625 3.734375 -16.164062 2.546875 -16.84375 C 1.835938 -17.25 1.171875 -17.425781 0.546875 -17.375 C -0.078125 -17.332031 -0.675781 -17.128906 -1.25 -16.765625 C -1.820312 -16.410156 -2.378906 -15.957031 -2.921875 -15.40625 C -3.472656 -14.863281 -4.035156 -14.28125 -4.609375 -13.65625 C -5.203125 -12.976562 -5.816406 -12.320312 -6.453125 -11.6875 C -7.097656 -11.050781 -7.78125 -10.53125 -8.5 -10.125 C -9.21875 -9.71875 -9.988281 -9.503906 -10.8125 -9.484375 C -11.632812 -9.472656 -12.535156 -9.75 -13.515625 -10.3125 C -14.628906 -10.945312 -15.4375 -11.769531 -15.9375 -12.78125 C -16.4375 -13.800781 -16.628906 -14.921875 -16.515625 -16.140625 C -16.398438 -17.367188 -15.96875 -18.628906 -15.21875 -19.921875 C -14.570312 -21.046875 -13.765625 -22.003906 -12.796875 -22.796875 C -11.828125 -23.585938 -10.71875 -24.101562 -9.46875 -24.34375 C -8.21875 -24.582031 -6.859375 -24.410156 -5.390625 -23.828125 L -6.71875 -21.515625 C -7.71875 -21.835938 -8.617188 -21.898438 -9.421875 -21.703125 C -10.234375 -21.503906 -10.945312 -21.128906 -11.5625 -20.578125 C -12.175781 -20.035156 -12.691406 -19.40625 -13.109375 -18.6875 C -13.878906 -17.34375 -14.179688 -16.160156 -14.015625 -15.140625 C -13.847656 -14.128906 -13.289062 -13.351562 -12.34375 -12.8125 C -11.550781 -12.351562 -10.796875 -12.234375 -10.078125 -12.453125 C -9.359375 -12.679688 -8.660156 -13.109375 -7.984375 -13.734375 C -7.316406 -14.367188 -6.632812 -15.078125 -5.9375 -15.859375 C -5.289062 -16.566406 -4.625 -17.253906 -3.9375 -17.921875 C -3.25 -18.597656 -2.515625 -19.148438 -1.734375 -19.578125 C -0.953125 -20.015625 -0.113281 -20.238281 0.78125 -20.25 C 1.6875 -20.257812 2.679688 -19.953125 3.765625 -19.328125 C 5.515625 -18.316406 6.578125 -16.921875 6.953125 -15.140625 C 7.328125 -13.359375 6.859375 -11.332031 5.546875 -9.0625 Z M 5.546875 -9.0625 "/></g></g></g><g fill="#ffffff" fill-opacity="1"><g transform="translate(173.741497, 301.098682)"><g><path d="M 2.5625 -4.4375 L 1.171875 -2.046875 L -18.625 -13.453125 L -17.234375 -15.84375 L -8.453125 -10.78125 L -2.75 -20.703125 L -11.53125 -25.765625 L -10.15625 -28.140625 L 9.640625 -16.734375 L 8.265625 -14.359375 L -0.625 -19.484375 L -6.328125 -9.5625 Z M 2.5625 -4.4375 "/></g></g></g><g fill="#ffffff" fill-opacity="1"><g transform="translate(183.810387, 283.61892)"><g><path d="M 8.546875 -14.84375 L 1.171875 -2.046875 L -18.625 -13.453125 L -11.25 -26.25 L -9.09375 -25 L -15.078125 -14.59375 L -8.4375 -10.765625 L -3.15625 -19.953125 L -1.03125 -18.734375 L -6.3125 -9.546875 L 0.40625 -5.671875 L 6.390625 -16.078125 Z M 8.546875 -14.84375 "/></g></g></g><g fill="#ffffff" fill-opacity="1"><g transform="translate(192.250908, 268.966035)"><g/></g></g><g fill="#ffffff" fill-opacity="1"><g transform="translate(195.671862, 263.027202)"><g><path d="M 2.5625 -4.4375 L 1.171875 -2.046875 L -18.625 -13.453125 L -17.234375 -15.84375 Z M 2.5625 -4.4375 "/></g></g></g><g fill="#ffffff" fill-opacity="1"><g transform="translate(198.659583, 257.840469)"><g><path d="M 2.5625 -4.4375 L 1.171875 -2.046875 L -18.625 -13.453125 L -16.609375 -16.9375 L 5.921875 -15.796875 L -11.484375 -25.828125 L -10.125 -28.1875 L 9.671875 -16.78125 L 7.671875 -13.3125 L -14.796875 -14.4375 Z M 2.5625 -4.4375 "/></g></g></g><g fill="#ffffff" fill-opacity="1"><g transform="translate(208.758353, 240.308834)"><g><path d="M 2.5625 -4.4375 L 1.171875 -2.046875 L -18.625 -13.453125 L -16.609375 -16.9375 L 5.921875 -15.796875 L -11.484375 -25.828125 L -10.125 -28.1875 L 9.671875 -16.78125 L 7.671875 -13.3125 L -14.796875 -14.4375 Z M 2.5625 -4.4375 "/></g></g></g><g fill="#ffffff" fill-opacity="1"><g transform="translate(218.857124, 222.777199)"><g><path d="M 6.28125 -10.34375 C 5.382812 -8.789062 4.332031 -7.59375 3.125 -6.75 C 1.925781 -5.914062 0.632812 -5.390625 -0.75 -5.171875 C -2.132812 -4.953125 -3.539062 -5.003906 -4.96875 -5.328125 C -6.40625 -5.660156 -7.800781 -6.21875 -9.15625 -7 C -10.5 -7.78125 -11.675781 -8.707031 -12.6875 -9.78125 C -13.695312 -10.851562 -14.453125 -12.039062 -14.953125 -13.34375 C -15.453125 -14.65625 -15.644531 -16.039062 -15.53125 -17.5 C -15.414062 -18.96875 -14.910156 -20.476562 -14.015625 -22.03125 C -13.109375 -23.59375 -12.046875 -24.796875 -10.828125 -25.640625 C -9.617188 -26.492188 -8.320312 -27.03125 -6.9375 -27.25 C -5.5625 -27.476562 -4.15625 -27.425781 -2.71875 -27.09375 C -1.28125 -26.757812 0.109375 -26.203125 1.453125 -25.421875 C 2.804688 -24.640625 3.984375 -23.710938 4.984375 -22.640625 C 5.992188 -21.578125 6.75 -20.390625 7.25 -19.078125 C 7.757812 -17.765625 7.953125 -16.367188 7.828125 -14.890625 C 7.703125 -13.421875 7.1875 -11.90625 6.28125 -10.34375 Z M 4.140625 -11.578125 C 5.003906 -13.066406 5.378906 -14.515625 5.265625 -15.921875 C 5.160156 -17.335938 4.65625 -18.65625 3.75 -19.875 C 2.84375 -21.09375 1.617188 -22.144531 0.078125 -23.03125 C -1.460938 -23.914062 -2.984375 -24.441406 -4.484375 -24.609375 C -5.992188 -24.785156 -7.382812 -24.566406 -8.65625 -23.953125 C -9.9375 -23.335938 -11.007812 -22.285156 -11.875 -20.796875 C -12.707031 -19.335938 -13.066406 -17.898438 -12.953125 -16.484375 C -12.847656 -15.078125 -12.34375 -13.765625 -11.4375 -12.546875 C -10.539062 -11.328125 -9.320312 -10.273438 -7.78125 -9.390625 C -6.238281 -8.503906 -4.710938 -7.972656 -3.203125 -7.796875 C -1.691406 -7.628906 -0.300781 -7.851562 0.96875 -8.46875 C 2.25 -9.082031 3.304688 -10.117188 4.140625 -11.578125 Z M 4.140625 -11.578125 "/></g></g></g><g fill="#ffffff" fill-opacity="1"><g transform="translate(229.777509, 203.81923)"><g><path d="M 5.953125 -10.34375 L 4.40625 -7.65625 L -19.59375 -11.765625 L -18.203125 -14.1875 L 2.75 -10.40625 L -11.015625 -26.640625 L -9.640625 -29.046875 Z M 5.953125 -10.34375 "/></g></g></g><g fill="#ffffff" fill-opacity="1"><g transform="translate(238.262739, 189.088727)"><g><path d="M 1.59375 -2.78125 L 0.203125 -0.359375 L -15.390625 -19.0625 L -13.84375 -21.75 L 10.15625 -17.640625 L 8.78125 -15.234375 L 2.921875 -16.28125 L -2.25 -7.3125 Z M -12.171875 -19 L -3.90625 -9.34375 L 0.34375 -16.703125 Z M -12.171875 -19 "/></g></g></g><g fill="#ffffff" fill-opacity="1"><g transform="translate(246.479044, 174.825086)"><g><path d="M 5.4375 -9.4375 L 4.0625 -7.046875 L -13.578125 -17.203125 L -17.4375 -10.515625 L -19.59375 -11.765625 L -10.484375 -27.578125 L -8.328125 -26.328125 L -12.203125 -19.59375 Z M 5.4375 -9.4375 "/></g></g></g><g fill="#ffffff" fill-opacity="1"><g transform="translate(255.233286, 159.627574)"><g><path d="M 8.546875 -14.84375 L 1.171875 -2.046875 L -18.625 -13.453125 L -11.25 -26.25 L -9.09375 -25 L -15.078125 -14.59375 L -8.4375 -10.765625 L -3.15625 -19.953125 L -1.03125 -18.734375 L -6.3125 -9.546875 L 0.40625 -5.671875 L 6.390625 -16.078125 Z M 8.546875 -14.84375 "/></g></g></g><g fill="#ffffff" fill-opacity="1"><g transform="translate(263.47958, 145.31187)"><g><path d="M 5.546875 -9.0625 C 4.804688 -7.757812 3.890625 -6.648438 2.796875 -5.734375 C 1.710938 -4.828125 0.476562 -4.242188 -0.90625 -3.984375 C -2.289062 -3.734375 -3.78125 -3.914062 -5.375 -4.53125 L -3.984375 -6.953125 C -2.796875 -6.554688 -1.726562 -6.488281 -0.78125 -6.75 C 0.15625 -7.007812 0.984375 -7.476562 1.703125 -8.15625 C 2.421875 -8.832031 3.015625 -9.578125 3.484375 -10.390625 C 4.285156 -11.773438 4.625 -13.023438 4.5 -14.140625 C 4.382812 -15.265625 3.734375 -16.164062 2.546875 -16.84375 C 1.835938 -17.25 1.171875 -17.425781 0.546875 -17.375 C -0.078125 -17.332031 -0.675781 -17.128906 -1.25 -16.765625 C -1.820312 -16.410156 -2.378906 -15.957031 -2.921875 -15.40625 C -3.472656 -14.863281 -4.035156 -14.28125 -4.609375 -13.65625 C -5.203125 -12.976562 -5.816406 -12.320312 -6.453125 -11.6875 C -7.097656 -11.050781 -7.78125 -10.53125 -8.5 -10.125 C -9.21875 -9.71875 -9.988281 -9.503906 -10.8125 -9.484375 C -11.632812 -9.472656 -12.535156 -9.75 -13.515625 -10.3125 C -14.628906 -10.945312 -15.4375 -11.769531 -15.9375 -12.78125 C -16.4375 -13.800781 -16.628906 -14.921875 -16.515625 -16.140625 C -16.398438 -17.367188 -15.96875 -18.628906 -15.21875 -19.921875 C -14.570312 -21.046875 -13.765625 -22.003906 -12.796875 -22.796875 C -11.828125 -23.585938 -10.71875 -24.101562 -9.46875 -24.34375 C -8.21875 -24.582031 -6.859375 -24.410156 -5.390625 -23.828125 L -6.71875 -21.515625 C -7.71875 -21.835938 -8.617188 -21.898438 -9.421875 -21.703125 C -10.234375 -21.503906 -10.945312 -21.128906 -11.5625 -20.578125 C -12.175781 -20.035156 -12.691406 -19.40625 -13.109375 -18.6875 C -13.878906 -17.34375 -14.179688 -16.160156 -14.015625 -15.140625 C -13.847656 -14.128906 -13.289062 -13.351562 -12.34375 -12.8125 C -11.550781 -12.351562 -10.796875 -12.234375 -10.078125 -12.453125 C -9.359375 -12.679688 -8.660156 -13.109375 -7.984375 -13.734375 C -7.316406 -14.367188 -6.632812 -15.078125 -5.9375 -15.859375 C -5.289062 -16.566406 -4.625 -17.253906 -3.9375 -17.921875 C -3.25 -18.597656 -2.515625 -19.148438 -1.734375 -19.578125 C -0.953125 -20.015625 -0.113281 -20.238281 0.78125 -20.25 C 1.6875 -20.257812 2.679688 -19.953125 3.765625 -19.328125 C 5.515625 -18.316406 6.578125 -16.921875 6.953125 -15.140625 C 7.328125 -13.359375 6.859375 -11.332031 5.546875 -9.0625 Z M 5.546875 -9.0625 "/></g></g></g></svg>